<svg version="1.1" xmlns="http://www.w3.org/2000/svg" width="24" height="24" viewBox="0 0 24 24">
<path d="M8.121 2.346c0.331 0 0.6 0.269 0.6 0.6 0 0.298-0.218 0.546-0.503 0.592l-0.097 0.008h-2.334c-1.27 0-2.31 0.987-2.394 2.236l-0.006 0.164v12.107c0 1.27 0.987 2.31 2.236 2.394l0.164 0.006h12.427c1.27 0 2.31-0.987 2.394-2.236l0.006-0.164v-1.642c0-0.331 0.269-0.6 0.6-0.6 0.298 0 0.546 0.218 0.592 0.503l0.008 0.097v1.642c0 1.924-1.509 3.496-3.409 3.595l-0.191 0.005h-12.427c-1.924 0-3.496-1.509-3.595-3.409l-0.005-0.191v-12.107c0-1.924 1.509-3.496 3.409-3.595l0.191-0.005h2.334z"></path>
<path d="M19.994 5.256l0.006 0.134v6.153c0 0.329-0.267 0.595-0.595 0.595-0.296 0-0.542-0.216-0.588-0.499l-0.008-0.097 0-5.511-8.793 8.794c-0.233 0.233-0.61 0.233-0.842 0-0.209-0.209-0.23-0.536-0.063-0.768l0.063-0.074 8.792-8.793-5.509 0.001c-0.329 0-0.595-0.267-0.595-0.595 0-0.296 0.216-0.542 0.499-0.588l0.097-0.008h6.153c0.722 0 1.316 0.551 1.383 1.256z"></path>
</svg>
