<svg width="32.000000" height="32.000000" viewBox="0 0 32 32" fill="none" xmlns="http://www.w3.org/2000/svg" xmlns:xlink="http://www.w3.org/1999/xlink">
	<desc>
			Created with Pixso.
	</desc>
	<defs>
		<clipPath id="clip36_6647">
			<rect id="ic_digital_power_rule_management" width="32.000000" height="32.000000" fill="white" fill-opacity="0"/>
		</clipPath>
	</defs>
	<g clip-path="url(#clip36_6647)">
		<path id="path1" d="M1 15.98C1 13.64 0.99 11.3 1 8.95C0.99 7.82 1.13 6.69 1.41 5.59C2.03 3.26 3.54 1.88 5.87 1.35C7.03 1.1 8.22 0.98 9.41 1C13.91 1 18.4 1 22.9 1C24.03 0.99 25.16 1.12 26.27 1.38C28.66 1.97 30.1 3.49 30.64 5.87C30.89 7 31.01 8.15 30.99 9.3C30.99 13.85 30.99 18.39 30.99 22.93C31 24.06 30.87 25.18 30.61 26.27C30.02 28.67 28.5 30.09 26.11 30.64C24.95 30.89 23.76 31.01 22.57 30.99C18.09 30.99 13.62 30.99 9.14 30.99C8 31 6.86 30.87 5.75 30.61C3.34 30.03 1.9 28.5 1.35 26.11C1.07 24.89 1 23.67 1 22.43C1 20.28 1 18.13 1 15.98Z" fill="#FFFFFF" fill-opacity="0" fill-rule="nonzero"/>
		<path id="path1" d="M1 8.95C0.99 7.82 1.13 6.69 1.41 5.59C2.03 3.26 3.54 1.88 5.87 1.35C7.03 1.1 8.22 0.98 9.41 1C13.91 1 18.4 1 22.9 1C24.03 0.99 25.16 1.12 26.27 1.38C28.66 1.97 30.1 3.49 30.64 5.87C30.89 7 31.01 8.15 30.99 9.3C30.99 13.85 30.99 18.39 30.99 22.93C31 24.06 30.87 25.18 30.61 26.27C30.02 28.67 28.5 30.09 26.11 30.64C24.95 30.89 23.76 31.01 22.57 30.99C18.09 30.99 13.62 30.99 9.14 30.99C8 31 6.86 30.87 5.75 30.61C3.34 30.03 1.9 28.5 1.35 26.11C1.07 24.89 1 23.67 1 22.43C1 20.28 1 18.13 1 15.98C1 13.64 0.99 11.3 1 8.95Z" stroke="#FFFFFF" stroke-opacity="0" stroke-width="2.000000"/>
		<path id="path2" d="M1 15.98C1 13.64 0.99 11.3 1 8.95C0.99 7.82 1.13 6.69 1.41 5.59C2.03 3.26 3.54 1.88 5.87 1.35C7.03 1.1 8.22 0.98 9.41 1C13.91 1 18.4 1 22.9 1C24.03 0.99 25.16 1.12 26.27 1.38C28.66 1.97 30.1 3.49 30.64 5.87C30.89 7 31.01 8.15 30.99 9.3C30.99 13.85 30.99 18.39 30.99 22.93C31 24.06 30.87 25.18 30.61 26.27C30.02 28.67 28.5 30.09 26.11 30.64C24.95 30.89 23.76 31.01 22.57 30.99C18.09 30.99 13.62 30.99 9.14 30.99C8 31 6.86 30.87 5.75 30.61C3.34 30.03 1.9 28.5 1.35 26.11C1.07 24.89 1 23.67 1 22.43C1 20.28 1 18.13 1 15.98Z" fill="#000000" fill-opacity="0" fill-rule="nonzero"/>
		<path id="path2" d="M1 8.95C0.99 7.82 1.13 6.69 1.41 5.59C2.03 3.26 3.54 1.88 5.87 1.35C7.03 1.1 8.22 0.98 9.41 1C13.91 1 18.4 1 22.9 1C24.03 0.99 25.16 1.12 26.27 1.38C28.66 1.97 30.1 3.49 30.64 5.87C30.89 7 31.01 8.15 30.99 9.3C30.99 13.85 30.99 18.39 30.99 22.93C31 24.06 30.87 25.18 30.61 26.27C30.02 28.67 28.5 30.09 26.11 30.64C24.95 30.89 23.76 31.01 22.57 30.99C18.09 30.99 13.62 30.99 9.14 30.99C8 31 6.86 30.87 5.75 30.61C3.34 30.03 1.9 28.5 1.35 26.11C1.07 24.89 1 23.67 1 22.43C1 20.28 1 18.13 1 15.98C1 13.64 0.99 11.3 1 8.95Z" stroke="#FFFFFF" stroke-opacity="0" stroke-width="2.000000"/>
		<circle id="path3" cx="16.000000" cy="16.000000" r="16.000000" fill="#FFFFFF" fill-opacity="0"/>
		<circle id="path3" cx="16.000000" cy="16.000000" r="16.000000" stroke="#000000" stroke-opacity="0" stroke-width="2.000000"/>
		<mask id="mask36_6655" mask-type="alpha" maskUnits="userSpaceOnUse" x="0.000000" y="0.000000" width="32.000488" height="32.000000">
			<path id="path-1" d="M32 0L32 19.22C31.67 18.75 31.24 18.34 30.72 18.04L26.29 15.48C25.08 14.78 23.58 14.78 22.37 15.48L17.94 18.04C16.72 18.74 15.98 20.04 15.98 21.44L15.98 26.55C15.98 27.95 16.72 29.25 17.94 29.95L21.48 32L0 32L0 0L32 0ZM32 28.77L32 32L27.17 32L30.72 29.95C31.24 29.65 31.67 29.24 32 28.77Z" fill="#FFFFFF" fill-opacity="1.000000" fill-rule="nonzero"/>
		</mask>
		<g mask="url(#mask36_6655)">
			<path id="path5" d="M7.33 1L23.33 1C25.54 1 27.33 2.79 27.33 5L27.33 27C27.33 29.2 25.54 31 23.33 31L7.33 31C5.12 31 3.33 29.2 3.33 27L3.33 5C3.33 2.79 5.12 1 7.33 1Z" fill="#FFFFFF" fill-opacity="0" fill-rule="evenodd"/>
			<path id="path5" d="M23.33 1C25.54 1 27.33 2.79 27.33 5L27.33 27C27.33 29.2 25.54 31 23.33 31L7.33 31C5.12 31 3.33 29.2 3.33 27L3.33 5C3.33 2.79 5.12 1 7.33 1L23.33 1Z" stroke="#191919" stroke-opacity="1.000000" stroke-width="2.000000" stroke-linejoin="round"/>
		</g>
		<path id="path6" d="M8.68 7.97L8.66 8C8.1 8 7.66 7.56 7.66 7C7.66 6.43 8.1 6 8.66 6L8.68 6.02L8.68 7.97ZM21.98 6.02L22 6C22.56 6 23 6.43 23 7C23 7.56 22.56 8 22 8L21.98 7.97L21.98 6.02ZM8.68 14.64L8.66 14.66C8.1 14.66 7.66 14.22 7.66 13.66C7.66 13.1 8.1 12.66 8.66 12.66L8.68 12.68L8.68 14.64ZM16.64 12.68L16.66 12.66C17.22 12.66 17.66 13.1 17.66 13.66C17.66 14.22 17.22 14.66 16.66 14.66L16.64 14.64L16.64 12.68Z" fill="#000000" fill-opacity="0" fill-rule="nonzero"/>
		<path id="path6" d="M8.66 7L22 7M8.66 13.66L16.66 13.66" stroke="#191919" stroke-opacity="1.000000" stroke-width="2.000000" stroke-linejoin="round" stroke-linecap="round"/>
		<path id="path7" d="M25.29 17.22L29.72 19.77C30.31 20.12 30.68 20.75 30.68 21.44L30.68 26.55C30.68 27.24 30.31 27.87 29.72 28.22L25.29 30.77C24.69 31.12 23.96 31.12 23.37 30.77L18.94 28.22C18.34 27.87 17.98 27.24 17.98 26.55L17.98 21.44C17.98 20.75 18.34 20.12 18.94 19.77L23.37 17.22C23.96 16.87 24.69 16.87 25.29 17.22Z" fill="#FFFFFF" fill-opacity="0" fill-rule="evenodd"/>
		<path id="path7" d="M29.72 19.77C30.31 20.12 30.68 20.75 30.68 21.44L30.68 26.55C30.68 27.24 30.31 27.87 29.72 28.22L25.29 30.77C24.69 31.12 23.96 31.12 23.37 30.77L18.94 28.22C18.34 27.87 17.98 27.24 17.98 26.55L17.98 21.44C17.98 20.75 18.34 20.12 18.94 19.77L23.37 17.22C23.96 16.87 24.69 16.87 25.29 17.22L29.72 19.77Z" stroke="#191919" stroke-opacity="1.000000" stroke-width="2.000000" stroke-linejoin="round"/>
		<circle id="path8" cx="24.333008" cy="24.000000" r="2.666667" fill="#FFFFFF" fill-opacity="0"/>
		<circle id="path8" cx="24.333008" cy="24.000000" r="2.666667" stroke="#191919" stroke-opacity="1.000000" stroke-width="2.000000" stroke-linejoin="round"/>
	</g>
</svg>
