<svg width="24.000000" height="24.000000" viewBox="0 0 24 24" fill="none" xmlns="http://www.w3.org/2000/svg" xmlns:xlink="http://www.w3.org/1999/xlink">
	<desc>
			Created with Pixso.
	</desc>
	<defs>
		<clipPath id="clip36_6734">
			<rect id="ic_public_info" width="24.000000" height="24.000000" fill="white" fill-opacity="0"/>
		</clipPath>
	</defs>
	<g clip-path="url(#clip36_6734)">
		<path id="path1" d="M0 11.99C0 10.11 -0.01 8.24 0 6.36C-0.01 5.45 0.1 4.55 0.32 3.67C0.82 1.81 2.03 0.71 3.89 0.28C4.82 0.08 5.77 -0.02 6.72 0C10.32 0 13.91 0 17.52 0C18.42 -0.01 19.32 0.09 20.21 0.31C22.12 0.77 23.27 1.99 23.71 3.9C23.91 4.8 24 5.72 23.99 6.64C23.99 10.28 23.99 13.91 23.99 17.54C24 18.44 23.89 19.34 23.68 20.22C23.21 22.13 22 23.27 20.09 23.71C19.15 23.91 18.2 24.01 17.25 23.99C13.67 23.99 10.09 23.99 6.51 23.99C5.59 24 4.68 23.9 3.79 23.69C1.87 23.22 0.71 22 0.28 20.08C0.05 19.11 0 18.13 0 17.15C0 15.43 0 13.71 0 11.99Z" fill="#FFFFFF" fill-opacity="0" fill-rule="evenodd"/>
		<circle id="path2" cx="12.000000" cy="12.000000" r="12.000000" fill="#FFFFFF" fill-opacity="0"/>
		<path id="path3" d="M12 1C5.91 1 1 5.92 1 12C1 18.07 5.91 23 12 23C18.07 23 23 18.07 23 12C23 5.92 18.07 1 12 1Z" fill="#FFFFFF" fill-opacity="0" fill-rule="evenodd"/>
		<path id="path3" d="M12 1C5.91 1 1 5.92 1 12C1 18.07 5.91 23 12 23C18.07 23 23 18.07 23 12C23 5.92 18.07 1 12 1Z" fill="#000000" fill-opacity="0" fill-rule="nonzero"/>
		<path id="path3" d="M1 12C1 18.07 5.91 23 12 23C18.07 23 23 18.07 23 12C23 5.92 18.07 1 12 1C5.91 1 1 5.92 1 12Z" stroke="#191919" stroke-opacity="1.000000" stroke-width="1.500000" stroke-linejoin="round"/>
		<path id="path4" d="M11.01 10.92L10.99 10.94C10.57 10.94 10.24 10.61 10.24 10.19C10.24 9.77 10.57 9.44 10.99 9.44L11.01 9.46L11.01 10.92ZM10.6 18.75L10.62 18.73L10.62 17.27L10.6 17.25C10.18 17.25 9.85 17.58 9.85 18C9.85 18.42 10.18 18.75 10.6 18.75Z" fill="#000000" fill-opacity="0" fill-rule="evenodd"/>
		<path id="path4" d="M10.99 10.19L11.99 10.19L11.99 18L13.39 18L10.6 18" stroke="#191919" stroke-opacity="1.000000" stroke-width="1.500000" stroke-linejoin="round" stroke-linecap="round"/>
		<circle id="path5" cx="12.000000" cy="7.000000" r="1.000000" fill="#191919" fill-opacity="1.000000"/>
	</g>
</svg>
