<svg version="1.1" xmlns="http://www.w3.org/2000/svg" width="34" height="32" viewBox="0 0 34 32">
<path fill="currentColor" d="M16.842 1.356c4.597 0 8.324 3.727 8.324 8.324s-3.727 8.324-8.324 8.324c-0.049 0-0.097-0-0.146-0.001l0.146-0.003c-7.248 0-13.111 5.704-13.111 12.725 0 0.651-0.528 1.179-1.179 1.179s-1.179-0.528-1.179-1.179c0-6.667 4.434-12.316 10.575-14.312-2.079-1.511-3.43-3.964-3.43-6.732 0-4.597 3.727-8.324 8.324-8.324zM24.147 17.425c4.983 2.607 8.164 7.677 8.164 13.298 0 0.651-0.528 1.179-1.179 1.179s-1.179-0.528-1.179-1.179c0-4.729-2.681-9.002-6.899-11.209-0.577-0.302-0.8-1.014-0.498-1.591s1.014-0.8 1.591-0.498zM16.842 3.714c-3.295 0-5.966 2.671-5.966 5.966s2.671 5.966 5.966 5.966l-0.125-0.004c0.042-0 0.083-0 0.125-0l0.051 0.005c3.271-0.027 5.915-2.688 5.915-5.966 0-3.295-2.671-5.966-5.966-5.966z"></path>
</svg>
